<?xml version="1.0" encoding="UTF-8" standalone="no"?>
<!DOCTYPE svg PUBLIC "-//W3C//DTD SVG 1.1//EN"
 "http://www.w3.org/Graphics/SVG/1.1/DTD/svg11.dtd">
<!-- Generated by graphviz version 2.40.1 (20161225.0304)
 -->
<!-- Title: dependencies Pages: 1 -->
<svg width="1476pt" height="290pt"
 viewBox="0.00 0.00 1476.00 290.00" xmlns="http://www.w3.org/2000/svg" xmlns:xlink="http://www.w3.org/1999/xlink">
<g id="graph0" class="graph" transform="scale(1 1) rotate(0) translate(4 286)">
<title>dependencies</title>
<polygon fill="#ffffff" stroke="transparent" points="-4,4 -4,-286 1472,-286 1472,4 -4,4"/>
<text text-anchor="start" x="713.0091" y="-42.4" font-family="sans-serif" font-weight="bold" font-size="14.00" fill="#000000">Legend</text>
<polygon fill="#ffffb3" stroke="transparent" points="500,-10 500,-30 520,-30 520,-10 500,-10"/>
<text text-anchor="start" x="523.629" y="-15.4" font-family="sans-serif" font-size="14.00" fill="#000000"> &#160;Declarations</text>
<polygon fill="#8dd3c7" stroke="transparent" points="613,-10 613,-30 633,-30 633,-10 613,-10"/>
<text text-anchor="start" x="636.7251" y="-15.4" font-family="sans-serif" font-size="14.00" fill="#000000"> &#160;Module</text>
<polygon fill="#80b1d3" stroke="transparent" points="699,-10 699,-30 719,-30 719,-10 699,-10"/>
<text text-anchor="start" x="722.7812" y="-15.4" font-family="sans-serif" font-size="14.00" fill="#000000"> &#160;Bootstrap</text>
<polygon fill="#fdb462" stroke="transparent" points="796,-10 796,-30 816,-30 816,-10 796,-10"/>
<text text-anchor="start" x="819.6732" y="-15.4" font-family="sans-serif" font-size="14.00" fill="#000000"> &#160;Providers</text>
<polygon fill="#fb8072" stroke="transparent" points="892,-10 892,-30 912,-30 912,-10 892,-10"/>
<text text-anchor="start" x="915.7258" y="-15.4" font-family="sans-serif" font-size="14.00" fill="#000000"> &#160;Exports</text>
<g id="clust1" class="cluster">
<title>cluster_BasicSetupModule</title>
<polygon fill="none" stroke="#000000" stroke-dasharray="1,5" points="8,-70 8,-274 314,-274 314,-70 8,-70"/>
</g>
<g id="clust2" class="cluster">
<title>cluster_BasicSetupModule_declarations</title>
<polygon fill="none" stroke="#000000" points="16,-78 16,-130 176,-130 176,-78 16,-78"/>
</g>
<g id="clust4" class="cluster">
<title>cluster_BasicSetupModule_imports</title>
<polygon fill="none" stroke="#000000" points="184,-78 184,-130 306,-130 306,-78 184,-78"/>
</g>
<g id="clust5" class="cluster">
<title>cluster_BasicSetupModule_exports</title>
<polygon fill="none" stroke="#000000" points="79,-214 79,-266 243,-266 243,-214 79,-214"/>
</g>
<g id="clust8" class="cluster">
<title>cluster_CustomControlModule</title>
<polygon fill="none" stroke="#000000" stroke-dasharray="1,5" points="646,-70 646,-274 850,-274 850,-70 646,-70"/>
</g>
<g id="clust9" class="cluster">
<title>cluster_CustomControlModule_declarations</title>
<polygon fill="none" stroke="#000000" points="655,-78 655,-130 839,-130 839,-78 655,-78"/>
</g>
<g id="clust12" class="cluster">
<title>cluster_CustomControlModule_exports</title>
<polygon fill="none" stroke="#000000" points="654,-214 654,-266 842,-266 842,-214 654,-214"/>
</g>
<g id="clust15" class="cluster">
<title>cluster_CustomMarkersModule</title>
<polygon fill="none" stroke="#000000" stroke-dasharray="1,5" points="858,-70 858,-274 1066,-274 1066,-70 858,-70"/>
</g>
<g id="clust16" class="cluster">
<title>cluster_CustomMarkersModule_declarations</title>
<polygon fill="none" stroke="#000000" points="867,-78 867,-130 1055,-130 1055,-78 867,-78"/>
</g>
<g id="clust19" class="cluster">
<title>cluster_CustomMarkersModule_exports</title>
<polygon fill="none" stroke="#000000" points="866,-214 866,-266 1058,-266 1058,-214 866,-214"/>
</g>
<g id="clust22" class="cluster">
<title>cluster_OlProjSetupModule</title>
<polygon fill="none" stroke="#000000" stroke-dasharray="1,5" points="1074,-70 1074,-274 1260,-274 1260,-70 1074,-70"/>
</g>
<g id="clust23" class="cluster">
<title>cluster_OlProjSetupModule_declarations</title>
<polygon fill="none" stroke="#000000" points="1083,-78 1083,-130 1249,-130 1249,-78 1083,-78"/>
</g>
<g id="clust26" class="cluster">
<title>cluster_OlProjSetupModule_exports</title>
<polygon fill="none" stroke="#000000" points="1082,-214 1082,-266 1252,-266 1252,-214 1082,-214"/>
</g>
<g id="clust29" class="cluster">
<title>cluster_ReadMeModule</title>
<polygon fill="none" stroke="#000000" stroke-dasharray="1,5" points="322,-138 322,-206 638,-206 638,-138 322,-138"/>
</g>
<g id="clust30" class="cluster">
<title>cluster_ReadMeModule_declarations</title>
<polygon fill="none" stroke="#000000" points="486,-146 486,-198 630,-198 630,-146 486,-146"/>
</g>
<g id="clust33" class="cluster">
<title>cluster_ReadMeModule_exports</title>
<polygon fill="none" stroke="#000000" points="330,-146 330,-198 478,-198 478,-146 330,-146"/>
</g>
<g id="clust36" class="cluster">
<title>cluster_SimplePopupModule</title>
<polygon fill="none" stroke="#000000" stroke-dasharray="1,5" points="1268,-70 1268,-274 1460,-274 1460,-70 1268,-70"/>
</g>
<g id="clust37" class="cluster">
<title>cluster_SimplePopupModule_declarations</title>
<polygon fill="none" stroke="#000000" points="1277,-78 1277,-130 1449,-130 1449,-78 1277,-78"/>
</g>
<g id="clust40" class="cluster">
<title>cluster_SimplePopupModule_exports</title>
<polygon fill="none" stroke="#000000" points="1276,-214 1276,-266 1452,-266 1452,-214 1276,-214"/>
</g>
<!-- BasicSetupComponent -->
<g id="node1" class="node">
<title>BasicSetupComponent</title>
<polygon fill="#ffffb3" stroke="#000000" points="168.3216,-122 23.6784,-122 23.6784,-86 168.3216,-86 168.3216,-122"/>
<text text-anchor="middle" x="96" y="-99.8" font-family="Times,serif" font-size="14.00" fill="#000000">BasicSetupComponent</text>
</g>
<!-- BasicSetupModule -->
<g id="node2" class="node">
<title>BasicSetupModule</title>
<polygon fill="#8dd3c7" stroke="#000000" points="222.0395,-190 219.0395,-194 198.0395,-194 195.0395,-190 99.9605,-190 99.9605,-154 222.0395,-154 222.0395,-190"/>
<text text-anchor="middle" x="161" y="-167.8" font-family="Times,serif" font-size="14.00" fill="#000000">BasicSetupModule</text>
</g>
<!-- BasicSetupComponent&#45;&gt;BasicSetupModule -->
<g id="edge1" class="edge">
<title>BasicSetupComponent&#45;&gt;BasicSetupModule</title>
<path fill="none" stroke="#000000" d="M133.9457,-122.2228C133.9457,-122.2228 133.9457,-143.7269 133.9457,-143.7269"/>
<polygon fill="#000000" stroke="#000000" points="130.4457,-143.7269 133.9457,-153.7269 137.4457,-143.727 130.4457,-143.7269"/>
</g>
<!-- BasicSetupComponent  -->
<g id="node4" class="node">
<title>BasicSetupComponent </title>
<polygon fill="#fb8072" stroke="#000000" points="234.8213,-258 87.1787,-258 87.1787,-222 234.8213,-222 234.8213,-258"/>
<text text-anchor="middle" x="161" y="-235.8" font-family="Times,serif" font-size="14.00" fill="#000000">BasicSetupComponent </text>
</g>
<!-- BasicSetupModule&#45;&gt;BasicSetupComponent  -->
<g id="edge3" class="edge">
<title>BasicSetupModule&#45;&gt;BasicSetupComponent </title>
<path fill="none" stroke="#000000" stroke-dasharray="5,2" d="M161,-190.2228C161,-190.2228 161,-211.7269 161,-211.7269"/>
<polygon fill="#000000" stroke="#000000" points="157.5001,-211.7269 161,-221.7269 164.5001,-211.727 157.5001,-211.7269"/>
</g>
<!-- ReadMeModule -->
<g id="node3" class="node">
<title>ReadMeModule</title>
<polygon fill="#8dd3c7" stroke="#000000" points="298.4748,-122 295.4748,-126 274.4748,-126 271.4748,-122 191.5252,-122 191.5252,-86 298.4748,-86 298.4748,-122"/>
<text text-anchor="middle" x="245" y="-99.8" font-family="Times,serif" font-size="14.00" fill="#000000">ReadMeModule</text>
</g>
<!-- ReadMeModule&#45;&gt;BasicSetupModule -->
<g id="edge2" class="edge">
<title>ReadMeModule&#45;&gt;BasicSetupModule</title>
<path fill="none" stroke="#000000" d="M206.8909,-122.2228C206.8909,-122.2228 206.8909,-143.7269 206.8909,-143.7269"/>
<polygon fill="#000000" stroke="#000000" points="203.391,-143.7269 206.8909,-153.7269 210.391,-143.727 203.391,-143.7269"/>
</g>
<!-- CustomControlModule -->
<g id="node6" class="node">
<title>CustomControlModule</title>
<polygon fill="#8dd3c7" stroke="#000000" points="819.8906,-190 816.8906,-194 795.8906,-194 792.8906,-190 674.1094,-190 674.1094,-154 819.8906,-154 819.8906,-190"/>
<text text-anchor="middle" x="747" y="-167.8" font-family="Times,serif" font-size="14.00" fill="#000000">CustomControlModule</text>
</g>
<!-- ReadMeModule&#45;&gt;CustomControlModule -->
<g id="edge5" class="edge">
<title>ReadMeModule&#45;&gt;CustomControlModule</title>
<path fill="none" stroke="#000000" d="M298.5946,-98C407.0667,-98 642.3961,-98 642.3961,-98 642.3961,-98 642.3961,-172 642.3961,-172 642.3961,-172 664.0646,-172 664.0646,-172"/>
<polygon fill="#000000" stroke="#000000" points="664.0646,-175.5001 674.0646,-172 664.0645,-168.5001 664.0646,-175.5001"/>
</g>
<!-- CustomMarkersModule -->
<g id="node9" class="node">
<title>CustomMarkersModule</title>
<polygon fill="#8dd3c7" stroke="#000000" points="1035.752,-190 1032.752,-194 1011.752,-194 1008.752,-190 886.248,-190 886.248,-154 1035.752,-154 1035.752,-190"/>
<text text-anchor="middle" x="961" y="-167.8" font-family="Times,serif" font-size="14.00" fill="#000000">CustomMarkersModule</text>
</g>
<!-- ReadMeModule&#45;&gt;CustomMarkersModule -->
<g id="edge8" class="edge">
<title>ReadMeModule&#45;&gt;CustomMarkersModule</title>
<path fill="none" stroke="#000000" d="M247.626,-122.0555C247.626,-133.439 247.626,-146 247.626,-146 247.626,-146 936.0414,-146 936.0414,-146 936.0414,-146 936.0414,-146.7942 936.0414,-146.7942"/>
<polygon fill="#000000" stroke="#000000" points="932.5415,-143.9421 936.0414,-153.9421 939.5415,-143.9422 932.5415,-143.9421"/>
</g>
<!-- OlProjSetupModule -->
<g id="node12" class="node">
<title>OlProjSetupModule</title>
<polygon fill="#8dd3c7" stroke="#000000" points="1230.2688,-190 1227.2688,-194 1206.2688,-194 1203.2688,-190 1101.7312,-190 1101.7312,-154 1230.2688,-154 1230.2688,-190"/>
<text text-anchor="middle" x="1166" y="-167.8" font-family="Times,serif" font-size="14.00" fill="#000000">OlProjSetupModule</text>
</g>
<!-- ReadMeModule&#45;&gt;OlProjSetupModule -->
<g id="edge11" class="edge">
<title>ReadMeModule&#45;&gt;OlProjSetupModule</title>
<path fill="none" stroke="#000000" d="M260.3413,-122.1944C260.3413,-130.2782 260.3413,-138 260.3413,-138 260.3413,-138 1144.5386,-138 1144.5386,-138 1144.5386,-138 1144.5386,-143.8056 1144.5386,-143.8056"/>
<polygon fill="#000000" stroke="#000000" points="1141.0387,-143.8055 1144.5386,-153.8056 1148.0387,-143.8056 1141.0387,-143.8055"/>
</g>
<!-- ReadMeComponent  -->
<g id="node15" class="node">
<title>ReadMeComponent </title>
<polygon fill="#fb8072" stroke="#000000" points="470.2577,-190 337.7423,-190 337.7423,-154 470.2577,-154 470.2577,-190"/>
<text text-anchor="middle" x="404" y="-167.8" font-family="Times,serif" font-size="14.00" fill="#000000">ReadMeComponent </text>
</g>
<!-- ReadMeModule&#45;&gt;ReadMeComponent  -->
<g id="edge14" class="edge">
<title>ReadMeModule&#45;&gt;ReadMeComponent </title>
<path fill="none" stroke="#000000" stroke-dasharray="5,2" d="M285.772,-122.2228C285.772,-142.3652 285.772,-172 285.772,-172 285.772,-172 327.6285,-172 327.6285,-172"/>
<polygon fill="#000000" stroke="#000000" points="327.6286,-175.5001 337.6285,-172 327.6285,-168.5001 327.6286,-175.5001"/>
</g>
<!-- SimplePopupModule -->
<g id="node17" class="node">
<title>SimplePopupModule</title>
<polygon fill="#8dd3c7" stroke="#000000" points="1430.5014,-190 1427.5014,-194 1406.5014,-194 1403.5014,-190 1295.4986,-190 1295.4986,-154 1430.5014,-154 1430.5014,-190"/>
<text text-anchor="middle" x="1363" y="-167.8" font-family="Times,serif" font-size="14.00" fill="#000000">SimplePopupModule</text>
</g>
<!-- ReadMeModule&#45;&gt;SimplePopupModule -->
<g id="edge16" class="edge">
<title>ReadMeModule&#45;&gt;SimplePopupModule</title>
<path fill="none" stroke="#000000" d="M273.0567,-122.0579C273.0567,-126.4945 273.0567,-130 273.0567,-130 273.0567,-130 1340.4998,-130 1340.4998,-130 1340.4998,-130 1340.4998,-143.9445 1340.4998,-143.9445"/>
<polygon fill="#000000" stroke="#000000" points="1336.9999,-143.9444 1340.4998,-153.9445 1343.9999,-143.9445 1336.9999,-143.9444"/>
</g>
<!-- CustomControlComponent -->
<g id="node5" class="node">
<title>CustomControlComponent</title>
<polygon fill="#ffffb3" stroke="#000000" points="830.6735,-122 663.3265,-122 663.3265,-86 830.6735,-86 830.6735,-122"/>
<text text-anchor="middle" x="747" y="-99.8" font-family="Times,serif" font-size="14.00" fill="#000000">CustomControlComponent</text>
</g>
<!-- CustomControlComponent&#45;&gt;CustomControlModule -->
<g id="edge4" class="edge">
<title>CustomControlComponent&#45;&gt;CustomControlModule</title>
<path fill="none" stroke="#000000" d="M747,-122.2228C747,-122.2228 747,-143.7269 747,-143.7269"/>
<polygon fill="#000000" stroke="#000000" points="743.5001,-143.7269 747,-153.7269 750.5001,-143.727 743.5001,-143.7269"/>
</g>
<!-- CustomControlComponent  -->
<g id="node7" class="node">
<title>CustomControlComponent </title>
<polygon fill="#fb8072" stroke="#000000" points="833.6733,-258 662.3267,-258 662.3267,-222 833.6733,-222 833.6733,-258"/>
<text text-anchor="middle" x="748" y="-235.8" font-family="Times,serif" font-size="14.00" fill="#000000">CustomControlComponent </text>
</g>
<!-- CustomControlModule&#45;&gt;CustomControlComponent  -->
<g id="edge6" class="edge">
<title>CustomControlModule&#45;&gt;CustomControlComponent </title>
<path fill="none" stroke="#000000" stroke-dasharray="5,2" d="M747,-190.2228C747,-190.2228 747,-211.7269 747,-211.7269"/>
<polygon fill="#000000" stroke="#000000" points="743.5001,-211.7269 747,-221.7269 750.5001,-211.727 743.5001,-211.7269"/>
</g>
<!-- CustomMarkersComponent -->
<g id="node8" class="node">
<title>CustomMarkersComponent</title>
<polygon fill="#ffffb3" stroke="#000000" points="1046.535,-122 875.465,-122 875.465,-86 1046.535,-86 1046.535,-122"/>
<text text-anchor="middle" x="961" y="-99.8" font-family="Times,serif" font-size="14.00" fill="#000000">CustomMarkersComponent</text>
</g>
<!-- CustomMarkersComponent&#45;&gt;CustomMarkersModule -->
<g id="edge7" class="edge">
<title>CustomMarkersComponent&#45;&gt;CustomMarkersModule</title>
<path fill="none" stroke="#000000" d="M985.9586,-122.2228C985.9586,-122.2228 985.9586,-143.7269 985.9586,-143.7269"/>
<polygon fill="#000000" stroke="#000000" points="982.4587,-143.7269 985.9586,-153.7269 989.4587,-143.727 982.4587,-143.7269"/>
</g>
<!-- CustomMarkersComponent  -->
<g id="node10" class="node">
<title>CustomMarkersComponent </title>
<polygon fill="#fb8072" stroke="#000000" points="1049.5344,-258 874.4656,-258 874.4656,-222 1049.5344,-222 1049.5344,-258"/>
<text text-anchor="middle" x="962" y="-235.8" font-family="Times,serif" font-size="14.00" fill="#000000">CustomMarkersComponent </text>
</g>
<!-- CustomMarkersModule&#45;&gt;CustomMarkersComponent  -->
<g id="edge9" class="edge">
<title>CustomMarkersModule&#45;&gt;CustomMarkersComponent </title>
<path fill="none" stroke="#000000" stroke-dasharray="5,2" d="M961,-190.2228C961,-190.2228 961,-211.7269 961,-211.7269"/>
<polygon fill="#000000" stroke="#000000" points="957.5001,-211.7269 961,-221.7269 964.5001,-211.727 957.5001,-211.7269"/>
</g>
<!-- OlProjSetupComponent -->
<g id="node11" class="node">
<title>OlProjSetupComponent</title>
<polygon fill="#ffffb3" stroke="#000000" points="1241.0519,-122 1090.9481,-122 1090.9481,-86 1241.0519,-86 1241.0519,-122"/>
<text text-anchor="middle" x="1166" y="-99.8" font-family="Times,serif" font-size="14.00" fill="#000000">OlProjSetupComponent</text>
</g>
<!-- OlProjSetupComponent&#45;&gt;OlProjSetupModule -->
<g id="edge10" class="edge">
<title>OlProjSetupComponent&#45;&gt;OlProjSetupModule</title>
<path fill="none" stroke="#000000" d="M1187.4614,-122.2228C1187.4614,-122.2228 1187.4614,-143.7269 1187.4614,-143.7269"/>
<polygon fill="#000000" stroke="#000000" points="1183.9615,-143.7269 1187.4614,-153.7269 1190.9615,-143.727 1183.9615,-143.7269"/>
</g>
<!-- OlProjSetupComponent  -->
<g id="node13" class="node">
<title>OlProjSetupComponent </title>
<polygon fill="#fb8072" stroke="#000000" points="1244.0512,-258 1089.9488,-258 1089.9488,-222 1244.0512,-222 1244.0512,-258"/>
<text text-anchor="middle" x="1167" y="-235.8" font-family="Times,serif" font-size="14.00" fill="#000000">OlProjSetupComponent </text>
</g>
<!-- OlProjSetupModule&#45;&gt;OlProjSetupComponent  -->
<g id="edge12" class="edge">
<title>OlProjSetupModule&#45;&gt;OlProjSetupComponent </title>
<path fill="none" stroke="#000000" stroke-dasharray="5,2" d="M1166,-190.2228C1166,-190.2228 1166,-211.7269 1166,-211.7269"/>
<polygon fill="#000000" stroke="#000000" points="1162.5001,-211.7269 1166,-221.7269 1169.5001,-211.727 1162.5001,-211.7269"/>
</g>
<!-- ReadMeComponent -->
<g id="node14" class="node">
<title>ReadMeComponent</title>
<polygon fill="#ffffb3" stroke="#000000" points="622.2576,-190 493.7424,-190 493.7424,-154 622.2576,-154 622.2576,-190"/>
<text text-anchor="middle" x="558" y="-167.8" font-family="Times,serif" font-size="14.00" fill="#000000">ReadMeComponent</text>
</g>
<!-- ReadMeComponent&#45;&gt;ReadMeModule -->
<g id="edge13" class="edge">
<title>ReadMeComponent&#45;&gt;ReadMeModule</title>
<path fill="none" stroke="#000000" d="M558,-153.7333C558,-135.4448 558,-110 558,-110 558,-110 308.8066,-110 308.8066,-110"/>
<polygon fill="#000000" stroke="#000000" points="308.8067,-106.5001 298.8066,-110 308.8066,-113.5001 308.8067,-106.5001"/>
</g>
<!-- SimplePopupComponent -->
<g id="node16" class="node">
<title>SimplePopupComponent</title>
<polygon fill="#ffffb3" stroke="#000000" points="1441.2841,-122 1284.7159,-122 1284.7159,-86 1441.2841,-86 1441.2841,-122"/>
<text text-anchor="middle" x="1363" y="-99.8" font-family="Times,serif" font-size="14.00" fill="#000000">SimplePopupComponent</text>
</g>
<!-- SimplePopupComponent&#45;&gt;SimplePopupModule -->
<g id="edge15" class="edge">
<title>SimplePopupComponent&#45;&gt;SimplePopupModule</title>
<path fill="none" stroke="#000000" d="M1385.5002,-122.2228C1385.5002,-122.2228 1385.5002,-143.7269 1385.5002,-143.7269"/>
<polygon fill="#000000" stroke="#000000" points="1382.0003,-143.7269 1385.5002,-153.7269 1389.0003,-143.727 1382.0003,-143.7269"/>
</g>
<!-- SimplePopupComponent  -->
<g id="node18" class="node">
<title>SimplePopupComponent </title>
<polygon fill="#fb8072" stroke="#000000" points="1444.2843,-258 1283.7157,-258 1283.7157,-222 1444.2843,-222 1444.2843,-258"/>
<text text-anchor="middle" x="1364" y="-235.8" font-family="Times,serif" font-size="14.00" fill="#000000">SimplePopupComponent </text>
</g>
<!-- SimplePopupModule&#45;&gt;SimplePopupComponent  -->
<g id="edge17" class="edge">
<title>SimplePopupModule&#45;&gt;SimplePopupComponent </title>
<path fill="none" stroke="#000000" stroke-dasharray="5,2" d="M1363,-190.2228C1363,-190.2228 1363,-211.7269 1363,-211.7269"/>
<polygon fill="#000000" stroke="#000000" points="1359.5001,-211.7269 1363,-221.7269 1366.5001,-211.727 1359.5001,-211.7269"/>
</g>
</g>
</svg>
