<?xml version="1.0" encoding="UTF-8" standalone="no"?>
<!DOCTYPE svg PUBLIC "-//W3C//DTD SVG 1.1//EN"
 "http://www.w3.org/Graphics/SVG/1.1/DTD/svg11.dtd">
<!-- Generated by graphviz version 2.40.1 (20161225.0304)
 -->
<!-- Title: dependencies Pages: 1 -->
<svg width="504pt" height="284pt"
 viewBox="0.00 0.00 504.00 284.00" xmlns="http://www.w3.org/2000/svg" xmlns:xlink="http://www.w3.org/1999/xlink">
<g id="graph0" class="graph" transform="scale(1 1) rotate(0) translate(4 280)">
<title>dependencies</title>
<polygon fill="#ffffff" stroke="transparent" points="-4,4 -4,-280 500,-280 500,4 -4,4"/>
<text text-anchor="start" x="227.0091" y="-42.4" font-family="sans-serif" font-weight="bold" font-size="14.00" fill="#000000">Legend</text>
<polygon fill="#ffffb3" stroke="transparent" points="14,-10 14,-30 34,-30 34,-10 14,-10"/>
<text text-anchor="start" x="37.629" y="-15.4" font-family="sans-serif" font-size="14.00" fill="#000000"> &#160;Declarations</text>
<polygon fill="#8dd3c7" stroke="transparent" points="127,-10 127,-30 147,-30 147,-10 127,-10"/>
<text text-anchor="start" x="150.7251" y="-15.4" font-family="sans-serif" font-size="14.00" fill="#000000"> &#160;Module</text>
<polygon fill="#80b1d3" stroke="transparent" points="213,-10 213,-30 233,-30 233,-10 213,-10"/>
<text text-anchor="start" x="236.7812" y="-15.4" font-family="sans-serif" font-size="14.00" fill="#000000"> &#160;Bootstrap</text>
<polygon fill="#fdb462" stroke="transparent" points="310,-10 310,-30 330,-30 330,-10 310,-10"/>
<text text-anchor="start" x="333.6732" y="-15.4" font-family="sans-serif" font-size="14.00" fill="#000000"> &#160;Providers</text>
<polygon fill="#fb8072" stroke="transparent" points="406,-10 406,-30 426,-30 426,-10 406,-10"/>
<text text-anchor="start" x="429.7258" y="-15.4" font-family="sans-serif" font-size="14.00" fill="#000000"> &#160;Exports</text>
<g id="clust1" class="cluster">
<title>cluster_CustomMarkersModule</title>
<polygon fill="none" stroke="#000000" stroke-dasharray="1,5" points="81,-70 81,-268 415,-268 415,-70 81,-70"/>
</g>
<g id="clust2" class="cluster">
<title>cluster_CustomMarkersModule_declarations</title>
<polygon fill="none" stroke="#000000" points="219,-78 219,-130 407,-130 407,-78 219,-78"/>
</g>
<g id="clust4" class="cluster">
<title>cluster_CustomMarkersModule_imports</title>
<polygon fill="none" stroke="#000000" points="89,-78 89,-130 211,-130 211,-78 89,-78"/>
</g>
<g id="clust5" class="cluster">
<title>cluster_CustomMarkersModule_exports</title>
<polygon fill="none" stroke="#000000" points="152,-208 152,-260 344,-260 344,-208 152,-208"/>
</g>
<!-- CustomMarkersComponent -->
<g id="node1" class="node">
<title>CustomMarkersComponent</title>
<polygon fill="#ffffb3" stroke="#000000" points="398.535,-122 227.465,-122 227.465,-86 398.535,-86 398.535,-122"/>
<text text-anchor="middle" x="313" y="-99.8" font-family="Times,serif" font-size="14.00" fill="#000000">CustomMarkersComponent</text>
</g>
<!-- CustomMarkersModule -->
<g id="node2" class="node">
<title>CustomMarkersModule</title>
<polygon fill="#8dd3c7" stroke="#000000" points="322.752,-187 319.752,-191 298.752,-191 295.752,-187 173.248,-187 173.248,-151 322.752,-151 322.752,-187"/>
<text text-anchor="middle" x="248" y="-164.8" font-family="Times,serif" font-size="14.00" fill="#000000">CustomMarkersModule</text>
</g>
<!-- CustomMarkersComponent&#45;&gt;CustomMarkersModule -->
<g id="edge1" class="edge">
<title>CustomMarkersComponent&#45;&gt;CustomMarkersModule</title>
<path fill="none" stroke="#000000" d="M275.0544,-122.1061C275.0544,-122.1061 275.0544,-140.991 275.0544,-140.991"/>
<polygon fill="#000000" stroke="#000000" points="271.5544,-140.9909 275.0544,-150.991 278.5544,-140.991 271.5544,-140.9909"/>
</g>
<!-- CustomMarkersComponent  -->
<g id="node4" class="node">
<title>CustomMarkersComponent </title>
<polygon fill="#fb8072" stroke="#000000" points="335.5344,-252 160.4656,-252 160.4656,-216 335.5344,-216 335.5344,-252"/>
<text text-anchor="middle" x="248" y="-229.8" font-family="Times,serif" font-size="14.00" fill="#000000">CustomMarkersComponent </text>
</g>
<!-- CustomMarkersModule&#45;&gt;CustomMarkersComponent  -->
<g id="edge3" class="edge">
<title>CustomMarkersModule&#45;&gt;CustomMarkersComponent </title>
<path fill="none" stroke="#000000" stroke-dasharray="5,2" d="M248,-187.1061C248,-187.1061 248,-205.991 248,-205.991"/>
<polygon fill="#000000" stroke="#000000" points="244.5001,-205.9909 248,-215.991 251.5001,-205.991 244.5001,-205.9909"/>
</g>
<!-- ReadMeModule -->
<g id="node3" class="node">
<title>ReadMeModule</title>
<polygon fill="#8dd3c7" stroke="#000000" points="203.4748,-122 200.4748,-126 179.4748,-126 176.4748,-122 96.5252,-122 96.5252,-86 203.4748,-86 203.4748,-122"/>
<text text-anchor="middle" x="150" y="-99.8" font-family="Times,serif" font-size="14.00" fill="#000000">ReadMeModule</text>
</g>
<!-- ReadMeModule&#45;&gt;CustomMarkersModule -->
<g id="edge2" class="edge">
<title>ReadMeModule&#45;&gt;CustomMarkersModule</title>
<path fill="none" stroke="#000000" d="M188.3058,-122.1061C188.3058,-122.1061 188.3058,-140.991 188.3058,-140.991"/>
<polygon fill="#000000" stroke="#000000" points="184.8058,-140.9909 188.3058,-150.991 191.8058,-140.991 184.8058,-140.9909"/>
</g>
</g>
</svg>
