<?xml version="1.0" encoding="UTF-8" standalone="no"?>
<!DOCTYPE svg PUBLIC "-//W3C//DTD SVG 1.1//EN"
 "http://www.w3.org/Graphics/SVG/1.1/DTD/svg11.dtd">
<!-- Generated by graphviz version 2.40.1 (20161225.0304)
 -->
<!-- Title: dependencies Pages: 1 -->
<svg width="504pt" height="284pt"
 viewBox="0.00 0.00 504.00 284.00" xmlns="http://www.w3.org/2000/svg" xmlns:xlink="http://www.w3.org/1999/xlink">
<g id="graph0" class="graph" transform="scale(1 1) rotate(0) translate(4 280)">
<title>dependencies</title>
<polygon fill="#ffffff" stroke="transparent" points="-4,4 -4,-280 500,-280 500,4 -4,4"/>
<text text-anchor="start" x="227.0091" y="-42.4" font-family="sans-serif" font-weight="bold" font-size="14.00" fill="#000000">Legend</text>
<polygon fill="#ffffb3" stroke="transparent" points="14,-10 14,-30 34,-30 34,-10 14,-10"/>
<text text-anchor="start" x="37.629" y="-15.4" font-family="sans-serif" font-size="14.00" fill="#000000"> &#160;Declarations</text>
<polygon fill="#8dd3c7" stroke="transparent" points="127,-10 127,-30 147,-30 147,-10 127,-10"/>
<text text-anchor="start" x="150.7251" y="-15.4" font-family="sans-serif" font-size="14.00" fill="#000000"> &#160;Module</text>
<polygon fill="#80b1d3" stroke="transparent" points="213,-10 213,-30 233,-30 233,-10 213,-10"/>
<text text-anchor="start" x="236.7812" y="-15.4" font-family="sans-serif" font-size="14.00" fill="#000000"> &#160;Bootstrap</text>
<polygon fill="#fdb462" stroke="transparent" points="310,-10 310,-30 330,-30 330,-10 310,-10"/>
<text text-anchor="start" x="333.6732" y="-15.4" font-family="sans-serif" font-size="14.00" fill="#000000"> &#160;Providers</text>
<polygon fill="#fb8072" stroke="transparent" points="406,-10 406,-30 426,-30 426,-10 406,-10"/>
<text text-anchor="start" x="429.7258" y="-15.4" font-family="sans-serif" font-size="14.00" fill="#000000"> &#160;Exports</text>
<g id="clust1" class="cluster">
<title>cluster_CustomControlModule</title>
<polygon fill="none" stroke="#000000" stroke-dasharray="1,5" points="83,-70 83,-268 413,-268 413,-70 83,-70"/>
</g>
<g id="clust2" class="cluster">
<title>cluster_CustomControlModule_declarations</title>
<polygon fill="none" stroke="#000000" points="221,-78 221,-130 405,-130 405,-78 221,-78"/>
</g>
<g id="clust4" class="cluster">
<title>cluster_CustomControlModule_imports</title>
<polygon fill="none" stroke="#000000" points="91,-78 91,-130 213,-130 213,-78 91,-78"/>
</g>
<g id="clust5" class="cluster">
<title>cluster_CustomControlModule_exports</title>
<polygon fill="none" stroke="#000000" points="154,-208 154,-260 342,-260 342,-208 154,-208"/>
</g>
<!-- CustomControlComponent -->
<g id="node1" class="node">
<title>CustomControlComponent</title>
<polygon fill="#ffffb3" stroke="#000000" points="396.6735,-122 229.3265,-122 229.3265,-86 396.6735,-86 396.6735,-122"/>
<text text-anchor="middle" x="313" y="-99.8" font-family="Times,serif" font-size="14.00" fill="#000000">CustomControlComponent</text>
</g>
<!-- CustomControlModule -->
<g id="node2" class="node">
<title>CustomControlModule</title>
<polygon fill="#8dd3c7" stroke="#000000" points="320.8906,-187 317.8906,-191 296.8906,-191 293.8906,-187 175.1094,-187 175.1094,-151 320.8906,-151 320.8906,-187"/>
<text text-anchor="middle" x="248" y="-164.8" font-family="Times,serif" font-size="14.00" fill="#000000">CustomControlModule</text>
</g>
<!-- CustomControlComponent&#45;&gt;CustomControlModule -->
<g id="edge1" class="edge">
<title>CustomControlComponent&#45;&gt;CustomControlModule</title>
<path fill="none" stroke="#000000" d="M275.0544,-122.1061C275.0544,-122.1061 275.0544,-140.991 275.0544,-140.991"/>
<polygon fill="#000000" stroke="#000000" points="271.5544,-140.9909 275.0544,-150.991 278.5544,-140.991 271.5544,-140.9909"/>
</g>
<!-- CustomControlComponent  -->
<g id="node4" class="node">
<title>CustomControlComponent </title>
<polygon fill="#fb8072" stroke="#000000" points="333.6733,-252 162.3267,-252 162.3267,-216 333.6733,-216 333.6733,-252"/>
<text text-anchor="middle" x="248" y="-229.8" font-family="Times,serif" font-size="14.00" fill="#000000">CustomControlComponent </text>
</g>
<!-- CustomControlModule&#45;&gt;CustomControlComponent  -->
<g id="edge3" class="edge">
<title>CustomControlModule&#45;&gt;CustomControlComponent </title>
<path fill="none" stroke="#000000" stroke-dasharray="5,2" d="M248,-187.1061C248,-187.1061 248,-205.991 248,-205.991"/>
<polygon fill="#000000" stroke="#000000" points="244.5001,-205.9909 248,-215.991 251.5001,-205.991 244.5001,-205.9909"/>
</g>
<!-- ReadMeModule -->
<g id="node3" class="node">
<title>ReadMeModule</title>
<polygon fill="#8dd3c7" stroke="#000000" points="205.4748,-122 202.4748,-126 181.4748,-126 178.4748,-122 98.5252,-122 98.5252,-86 205.4748,-86 205.4748,-122"/>
<text text-anchor="middle" x="152" y="-99.8" font-family="Times,serif" font-size="14.00" fill="#000000">ReadMeModule</text>
</g>
<!-- ReadMeModule&#45;&gt;CustomControlModule -->
<g id="edge2" class="edge">
<title>ReadMeModule&#45;&gt;CustomControlModule</title>
<path fill="none" stroke="#000000" d="M190.2711,-122.1061C190.2711,-122.1061 190.2711,-140.991 190.2711,-140.991"/>
<polygon fill="#000000" stroke="#000000" points="186.7711,-140.9909 190.2711,-150.991 193.7711,-140.991 186.7711,-140.9909"/>
</g>
</g>
</svg>
