<?xml version="1.0" encoding="UTF-8" standalone="no"?>
<!DOCTYPE svg PUBLIC "-//W3C//DTD SVG 1.1//EN"
 "http://www.w3.org/Graphics/SVG/1.1/DTD/svg11.dtd">
<!-- Generated by graphviz version 3.0.0 (20220226.1711)
 -->
<!-- Title: dependencies Pages: 1 -->
<svg width="170pt" height="247pt"
 viewBox="0.00 0.00 170.00 246.80" xmlns="http://www.w3.org/2000/svg" xmlns:xlink="http://www.w3.org/1999/xlink">
<g id="graph0" class="graph" transform="scale(1 1) rotate(0) translate(4 242.8)">
<title>dependencies</title>
<polygon fill="white" stroke="transparent" points="-4,4 -4,-242.8 166,-242.8 166,4 -4,4"/>
<text text-anchor="middle" x="81" y="-8.2" font-family="sans-serif" font-size="14.00">dependencies</text>
<g id="clust1" class="cluster">
<title>cluster_DocsModule</title>
<polygon fill="none" stroke="black" stroke-dasharray="1,5" points="8,-32.8 8,-230.8 154,-230.8 154,-32.8 8,-32.8"/>
</g>
<g id="clust2" class="cluster">
<title>cluster_DocsModule_declarations</title>
<polygon fill="none" stroke="black" points="18,-40.8 18,-92.8 144,-92.8 144,-40.8 18,-40.8"/>
</g>
<g id="clust5" class="cluster">
<title>cluster_DocsModule_exports</title>
<polygon fill="none" stroke="black" points="16,-170.8 16,-222.8 146,-222.8 146,-170.8 16,-170.8"/>
</g>
<!-- DocsComponent -->
<g id="node1" class="node">
<title>DocsComponent</title>
<polygon fill="#ffffb3" stroke="black" points="136.1,-84.8 25.9,-84.8 25.9,-48.8 136.1,-48.8 136.1,-84.8"/>
<text text-anchor="middle" x="81" y="-62.6" font-family="Times,serif" font-size="14.00">DocsComponent</text>
</g>
<!-- DocsModule -->
<g id="node2" class="node">
<title>DocsModule</title>
<polygon fill="#8dd3c7" stroke="black" points="125.32,-149.8 122.32,-153.8 101.32,-153.8 98.32,-149.8 36.68,-149.8 36.68,-113.8 125.32,-113.8 125.32,-149.8"/>
<text text-anchor="middle" x="81" y="-127.6" font-family="Times,serif" font-size="14.00">DocsModule</text>
</g>
<!-- DocsComponent&#45;&gt;DocsModule -->
<g id="edge1" class="edge">
<title>DocsComponent&#45;&gt;DocsModule</title>
<path fill="none" stroke="black" d="M81,-84.91C81,-84.91 81,-103.79 81,-103.79"/>
<polygon fill="black" stroke="black" points="77.5,-103.79 81,-113.79 84.5,-103.79 77.5,-103.79"/>
</g>
<!-- DocsComponent  -->
<g id="node3" class="node">
<title>DocsComponent </title>
<polygon fill="#fb8072" stroke="black" points="137.6,-214.8 24.4,-214.8 24.4,-178.8 137.6,-178.8 137.6,-214.8"/>
<text text-anchor="middle" x="81" y="-192.6" font-family="Times,serif" font-size="14.00">DocsComponent </text>
</g>
<!-- DocsModule&#45;&gt;DocsComponent  -->
<g id="edge2" class="edge">
<title>DocsModule&#45;&gt;DocsComponent </title>
<path fill="none" stroke="black" stroke-dasharray="5,2" d="M81,-149.91C81,-149.91 81,-168.79 81,-168.79"/>
<polygon fill="black" stroke="black" points="77.5,-168.79 81,-178.79 84.5,-168.79 77.5,-168.79"/>
</g>
</g>
</svg>
