<?xml version="1.0" encoding="UTF-8" standalone="no"?>
<!DOCTYPE svg PUBLIC "-//W3C//DTD SVG 1.1//EN"
 "http://www.w3.org/Graphics/SVG/1.1/DTD/svg11.dtd">
<!-- Generated by graphviz version 3.0.0 (20220226.1711)
 -->
<!-- Title: dependencies Pages: 1 -->
<svg width="246pt" height="247pt"
 viewBox="0.00 0.00 246.00 246.80" xmlns="http://www.w3.org/2000/svg" xmlns:xlink="http://www.w3.org/1999/xlink">
<g id="graph0" class="graph" transform="scale(1 1) rotate(0) translate(4 242.8)">
<title>dependencies</title>
<polygon fill="white" stroke="transparent" points="-4,4 -4,-242.8 242,-242.8 242,4 -4,4"/>
<text text-anchor="middle" x="119" y="-8.2" font-family="sans-serif" font-size="14.00">dependencies</text>
<g id="clust1" class="cluster">
<title>cluster_GeojsonRenderingModule</title>
<polygon fill="none" stroke="black" stroke-dasharray="1,5" points="8,-32.8 8,-230.8 230,-230.8 230,-32.8 8,-32.8"/>
</g>
<g id="clust2" class="cluster">
<title>cluster_GeojsonRenderingModule_declarations</title>
<polygon fill="none" stroke="black" points="18,-40.8 18,-92.8 220,-92.8 220,-40.8 18,-40.8"/>
</g>
<g id="clust5" class="cluster">
<title>cluster_GeojsonRenderingModule_exports</title>
<polygon fill="none" stroke="black" points="16,-170.8 16,-222.8 222,-222.8 222,-170.8 16,-170.8"/>
</g>
<!-- GeojsonRenderingComponent -->
<g id="node1" class="node">
<title>GeojsonRenderingComponent</title>
<polygon fill="#ffffb3" stroke="black" points="212.31,-84.8 25.69,-84.8 25.69,-48.8 212.31,-48.8 212.31,-84.8"/>
<text text-anchor="middle" x="119" y="-62.6" font-family="Times,serif" font-size="14.00">GeojsonRenderingComponent</text>
</g>
<!-- GeojsonRenderingModule -->
<g id="node2" class="node">
<title>GeojsonRenderingModule</title>
<polygon fill="#8dd3c7" stroke="black" points="201.03,-149.8 198.03,-153.8 177.03,-153.8 174.03,-149.8 36.97,-149.8 36.97,-113.8 201.03,-113.8 201.03,-149.8"/>
<text text-anchor="middle" x="119" y="-127.6" font-family="Times,serif" font-size="14.00">GeojsonRenderingModule</text>
</g>
<!-- GeojsonRenderingComponent&#45;&gt;GeojsonRenderingModule -->
<g id="edge1" class="edge">
<title>GeojsonRenderingComponent&#45;&gt;GeojsonRenderingModule</title>
<path fill="none" stroke="black" d="M119,-84.91C119,-84.91 119,-103.79 119,-103.79"/>
<polygon fill="black" stroke="black" points="115.5,-103.79 119,-113.79 122.5,-103.79 115.5,-103.79"/>
</g>
<!-- GeojsonRenderingComponent  -->
<g id="node3" class="node">
<title>GeojsonRenderingComponent </title>
<polygon fill="#fb8072" stroke="black" points="213.81,-214.8 24.19,-214.8 24.19,-178.8 213.81,-178.8 213.81,-214.8"/>
<text text-anchor="middle" x="119" y="-192.6" font-family="Times,serif" font-size="14.00">GeojsonRenderingComponent </text>
</g>
<!-- GeojsonRenderingModule&#45;&gt;GeojsonRenderingComponent  -->
<g id="edge2" class="edge">
<title>GeojsonRenderingModule&#45;&gt;GeojsonRenderingComponent </title>
<path fill="none" stroke="black" stroke-dasharray="5,2" d="M119,-149.91C119,-149.91 119,-168.79 119,-168.79"/>
<polygon fill="black" stroke="black" points="115.5,-168.79 119,-178.79 122.5,-168.79 115.5,-168.79"/>
</g>
</g>
</svg>
