<?xml version="1.0" encoding="UTF-8" standalone="no"?>
<!DOCTYPE svg PUBLIC "-//W3C//DTD SVG 1.1//EN"
 "http://www.w3.org/Graphics/SVG/1.1/DTD/svg11.dtd">
<!-- Generated by graphviz version 2.40.1 (20161225.0304)
 -->
<!-- Title: dependencies Pages: 1 -->
<svg width="504pt" height="284pt"
 viewBox="0.00 0.00 504.00 284.00" xmlns="http://www.w3.org/2000/svg" xmlns:xlink="http://www.w3.org/1999/xlink">
<g id="graph0" class="graph" transform="scale(1 1) rotate(0) translate(4 280)">
<title>dependencies</title>
<polygon fill="#ffffff" stroke="transparent" points="-4,4 -4,-280 500,-280 500,4 -4,4"/>
<text text-anchor="start" x="227.0091" y="-42.4" font-family="sans-serif" font-weight="bold" font-size="14.00" fill="#000000">Legend</text>
<polygon fill="#ffffb3" stroke="transparent" points="14,-10 14,-30 34,-30 34,-10 14,-10"/>
<text text-anchor="start" x="37.629" y="-15.4" font-family="sans-serif" font-size="14.00" fill="#000000"> &#160;Declarations</text>
<polygon fill="#8dd3c7" stroke="transparent" points="127,-10 127,-30 147,-30 147,-10 127,-10"/>
<text text-anchor="start" x="150.7251" y="-15.4" font-family="sans-serif" font-size="14.00" fill="#000000"> &#160;Module</text>
<polygon fill="#80b1d3" stroke="transparent" points="213,-10 213,-30 233,-30 233,-10 213,-10"/>
<text text-anchor="start" x="236.7812" y="-15.4" font-family="sans-serif" font-size="14.00" fill="#000000"> &#160;Bootstrap</text>
<polygon fill="#fdb462" stroke="transparent" points="310,-10 310,-30 330,-30 330,-10 310,-10"/>
<text text-anchor="start" x="333.6732" y="-15.4" font-family="sans-serif" font-size="14.00" fill="#000000"> &#160;Providers</text>
<polygon fill="#fb8072" stroke="transparent" points="406,-10 406,-30 426,-30 426,-10 406,-10"/>
<text text-anchor="start" x="429.7258" y="-15.4" font-family="sans-serif" font-size="14.00" fill="#000000"> &#160;Exports</text>
<g id="clust1" class="cluster">
<title>cluster_OlProjSetupModule</title>
<polygon fill="none" stroke="#000000" stroke-dasharray="1,5" points="92,-70 92,-268 404,-268 404,-70 92,-70"/>
</g>
<g id="clust2" class="cluster">
<title>cluster_OlProjSetupModule_declarations</title>
<polygon fill="none" stroke="#000000" points="230,-78 230,-130 396,-130 396,-78 230,-78"/>
</g>
<g id="clust4" class="cluster">
<title>cluster_OlProjSetupModule_imports</title>
<polygon fill="none" stroke="#000000" points="100,-78 100,-130 222,-130 222,-78 100,-78"/>
</g>
<g id="clust5" class="cluster">
<title>cluster_OlProjSetupModule_exports</title>
<polygon fill="none" stroke="#000000" points="163,-208 163,-260 333,-260 333,-208 163,-208"/>
</g>
<!-- OlProjSetupComponent -->
<g id="node1" class="node">
<title>OlProjSetupComponent</title>
<polygon fill="#ffffb3" stroke="#000000" points="388.0519,-122 237.9481,-122 237.9481,-86 388.0519,-86 388.0519,-122"/>
<text text-anchor="middle" x="313" y="-99.8" font-family="Times,serif" font-size="14.00" fill="#000000">OlProjSetupComponent</text>
</g>
<!-- OlProjSetupModule -->
<g id="node2" class="node">
<title>OlProjSetupModule</title>
<polygon fill="#8dd3c7" stroke="#000000" points="312.2688,-187 309.2688,-191 288.2688,-191 285.2688,-187 183.7312,-187 183.7312,-151 312.2688,-151 312.2688,-187"/>
<text text-anchor="middle" x="248" y="-164.8" font-family="Times,serif" font-size="14.00" fill="#000000">OlProjSetupModule</text>
</g>
<!-- OlProjSetupComponent&#45;&gt;OlProjSetupModule -->
<g id="edge1" class="edge">
<title>OlProjSetupComponent&#45;&gt;OlProjSetupModule</title>
<path fill="none" stroke="#000000" d="M275.0544,-122.1061C275.0544,-122.1061 275.0544,-140.991 275.0544,-140.991"/>
<polygon fill="#000000" stroke="#000000" points="271.5544,-140.9909 275.0544,-150.991 278.5544,-140.991 271.5544,-140.9909"/>
</g>
<!-- OlProjSetupComponent  -->
<g id="node4" class="node">
<title>OlProjSetupComponent </title>
<polygon fill="#fb8072" stroke="#000000" points="325.0512,-252 170.9488,-252 170.9488,-216 325.0512,-216 325.0512,-252"/>
<text text-anchor="middle" x="248" y="-229.8" font-family="Times,serif" font-size="14.00" fill="#000000">OlProjSetupComponent </text>
</g>
<!-- OlProjSetupModule&#45;&gt;OlProjSetupComponent  -->
<g id="edge3" class="edge">
<title>OlProjSetupModule&#45;&gt;OlProjSetupComponent </title>
<path fill="none" stroke="#000000" stroke-dasharray="5,2" d="M248,-187.1061C248,-187.1061 248,-205.991 248,-205.991"/>
<polygon fill="#000000" stroke="#000000" points="244.5001,-205.9909 248,-215.991 251.5001,-205.991 244.5001,-205.9909"/>
</g>
<!-- ReadMeModule -->
<g id="node3" class="node">
<title>ReadMeModule</title>
<polygon fill="#8dd3c7" stroke="#000000" points="214.4748,-122 211.4748,-126 190.4748,-126 187.4748,-122 107.5252,-122 107.5252,-86 214.4748,-86 214.4748,-122"/>
<text text-anchor="middle" x="161" y="-99.8" font-family="Times,serif" font-size="14.00" fill="#000000">ReadMeModule</text>
</g>
<!-- ReadMeModule&#45;&gt;OlProjSetupModule -->
<g id="edge2" class="edge">
<title>ReadMeModule&#45;&gt;OlProjSetupModule</title>
<path fill="none" stroke="#000000" d="M199.0516,-122.1061C199.0516,-122.1061 199.0516,-140.991 199.0516,-140.991"/>
<polygon fill="#000000" stroke="#000000" points="195.5516,-140.9909 199.0516,-150.991 202.5516,-140.991 195.5516,-140.9909"/>
</g>
</g>
</svg>
