<?xml version="1.0" encoding="UTF-8" standalone="no"?>
<!DOCTYPE svg PUBLIC "-//W3C//DTD SVG 1.1//EN"
 "http://www.w3.org/Graphics/SVG/1.1/DTD/svg11.dtd">
<!-- Generated by graphviz version 3.0.0 (20220226.1711)
 -->
<!-- Title: dependencies Pages: 1 -->
<svg width="242pt" height="247pt"
 viewBox="0.00 0.00 242.00 246.80" xmlns="http://www.w3.org/2000/svg" xmlns:xlink="http://www.w3.org/1999/xlink">
<g id="graph0" class="graph" transform="scale(1 1) rotate(0) translate(4 242.8)">
<title>dependencies</title>
<polygon fill="white" stroke="transparent" points="-4,4 -4,-242.8 238,-242.8 238,4 -4,4"/>
<text text-anchor="middle" x="117" y="-8.2" font-family="sans-serif" font-size="14.00">dependencies</text>
<g id="clust1" class="cluster">
<title>cluster_ClusteredFeaturesModule</title>
<polygon fill="none" stroke="black" stroke-dasharray="1,5" points="8,-32.8 8,-230.8 226,-230.8 226,-32.8 8,-32.8"/>
</g>
<g id="clust5" class="cluster">
<title>cluster_ClusteredFeaturesModule_exports</title>
<polygon fill="none" stroke="black" points="16,-170.8 16,-222.8 218,-222.8 218,-170.8 16,-170.8"/>
</g>
<g id="clust2" class="cluster">
<title>cluster_ClusteredFeaturesModule_declarations</title>
<polygon fill="none" stroke="black" points="18,-40.8 18,-92.8 216,-92.8 216,-40.8 18,-40.8"/>
</g>
<!-- ClusteredFeaturesComponent -->
<g id="node1" class="node">
<title>ClusteredFeaturesComponent</title>
<polygon fill="#ffffb3" stroke="black" points="208.41,-84.8 25.59,-84.8 25.59,-48.8 208.41,-48.8 208.41,-84.8"/>
<text text-anchor="middle" x="117" y="-62.6" font-family="Times,serif" font-size="14.00">ClusteredFeaturesComponent</text>
</g>
<!-- ClusteredFeaturesModule -->
<g id="node2" class="node">
<title>ClusteredFeaturesModule</title>
<polygon fill="#8dd3c7" stroke="black" points="197.14,-149.8 194.14,-153.8 173.14,-153.8 170.14,-149.8 36.86,-149.8 36.86,-113.8 197.14,-113.8 197.14,-149.8"/>
<text text-anchor="middle" x="117" y="-127.6" font-family="Times,serif" font-size="14.00">ClusteredFeaturesModule</text>
</g>
<!-- ClusteredFeaturesComponent&#45;&gt;ClusteredFeaturesModule -->
<g id="edge1" class="edge">
<title>ClusteredFeaturesComponent&#45;&gt;ClusteredFeaturesModule</title>
<path fill="none" stroke="black" d="M117,-84.91C117,-84.91 117,-103.79 117,-103.79"/>
<polygon fill="black" stroke="black" points="113.5,-103.79 117,-113.79 120.5,-103.79 113.5,-103.79"/>
</g>
<!-- ClusteredFeaturesComponent  -->
<g id="node3" class="node">
<title>ClusteredFeaturesComponent </title>
<polygon fill="#fb8072" stroke="black" points="209.91,-214.8 24.09,-214.8 24.09,-178.8 209.91,-178.8 209.91,-214.8"/>
<text text-anchor="middle" x="117" y="-192.6" font-family="Times,serif" font-size="14.00">ClusteredFeaturesComponent </text>
</g>
<!-- ClusteredFeaturesModule&#45;&gt;ClusteredFeaturesComponent  -->
<g id="edge2" class="edge">
<title>ClusteredFeaturesModule&#45;&gt;ClusteredFeaturesComponent </title>
<path fill="none" stroke="black" stroke-dasharray="5,2" d="M117,-149.91C117,-149.91 117,-168.79 117,-168.79"/>
<polygon fill="black" stroke="black" points="113.5,-168.79 117,-178.79 120.5,-168.79 113.5,-168.79"/>
</g>
</g>
</svg>
