<?xml version="1.0" encoding="UTF-8" standalone="no"?>
<!DOCTYPE svg PUBLIC "-//W3C//DTD SVG 1.1//EN"
 "http://www.w3.org/Graphics/SVG/1.1/DTD/svg11.dtd">
<!-- Generated by graphviz version 2.40.1 (20161225.0304)
 -->
<!-- Title: dependencies Pages: 1 -->
<svg width="504pt" height="284pt"
 viewBox="0.00 0.00 504.00 284.00" xmlns="http://www.w3.org/2000/svg" xmlns:xlink="http://www.w3.org/1999/xlink">
<g id="graph0" class="graph" transform="scale(1 1) rotate(0) translate(4 280)">
<title>dependencies</title>
<polygon fill="#ffffff" stroke="transparent" points="-4,4 -4,-280 500,-280 500,4 -4,4"/>
<text text-anchor="start" x="227.0091" y="-42.4" font-family="sans-serif" font-weight="bold" font-size="14.00" fill="#000000">Legend</text>
<polygon fill="#ffffb3" stroke="transparent" points="14,-10 14,-30 34,-30 34,-10 14,-10"/>
<text text-anchor="start" x="37.629" y="-15.4" font-family="sans-serif" font-size="14.00" fill="#000000"> &#160;Declarations</text>
<polygon fill="#8dd3c7" stroke="transparent" points="127,-10 127,-30 147,-30 147,-10 127,-10"/>
<text text-anchor="start" x="150.7251" y="-15.4" font-family="sans-serif" font-size="14.00" fill="#000000"> &#160;Module</text>
<polygon fill="#80b1d3" stroke="transparent" points="213,-10 213,-30 233,-30 233,-10 213,-10"/>
<text text-anchor="start" x="236.7812" y="-15.4" font-family="sans-serif" font-size="14.00" fill="#000000"> &#160;Bootstrap</text>
<polygon fill="#fdb462" stroke="transparent" points="310,-10 310,-30 330,-30 330,-10 310,-10"/>
<text text-anchor="start" x="333.6732" y="-15.4" font-family="sans-serif" font-size="14.00" fill="#000000"> &#160;Providers</text>
<polygon fill="#fb8072" stroke="transparent" points="406,-10 406,-30 426,-30 426,-10 406,-10"/>
<text text-anchor="start" x="429.7258" y="-15.4" font-family="sans-serif" font-size="14.00" fill="#000000"> &#160;Exports</text>
<g id="clust1" class="cluster">
<title>cluster_BasicSetupModule</title>
<polygon fill="none" stroke="#000000" stroke-dasharray="1,5" points="95,-70 95,-268 401,-268 401,-70 95,-70"/>
</g>
<g id="clust2" class="cluster">
<title>cluster_BasicSetupModule_declarations</title>
<polygon fill="none" stroke="#000000" points="233,-78 233,-130 393,-130 393,-78 233,-78"/>
</g>
<g id="clust4" class="cluster">
<title>cluster_BasicSetupModule_imports</title>
<polygon fill="none" stroke="#000000" points="103,-78 103,-130 225,-130 225,-78 103,-78"/>
</g>
<g id="clust5" class="cluster">
<title>cluster_BasicSetupModule_exports</title>
<polygon fill="none" stroke="#000000" points="166,-208 166,-260 330,-260 330,-208 166,-208"/>
</g>
<!-- BasicSetupComponent -->
<g id="node1" class="node">
<title>BasicSetupComponent</title>
<polygon fill="#ffffb3" stroke="#000000" points="385.3216,-122 240.6784,-122 240.6784,-86 385.3216,-86 385.3216,-122"/>
<text text-anchor="middle" x="313" y="-99.8" font-family="Times,serif" font-size="14.00" fill="#000000">BasicSetupComponent</text>
</g>
<!-- BasicSetupModule -->
<g id="node2" class="node">
<title>BasicSetupModule</title>
<polygon fill="#8dd3c7" stroke="#000000" points="309.0395,-187 306.0395,-191 285.0395,-191 282.0395,-187 186.9605,-187 186.9605,-151 309.0395,-151 309.0395,-187"/>
<text text-anchor="middle" x="248" y="-164.8" font-family="Times,serif" font-size="14.00" fill="#000000">BasicSetupModule</text>
</g>
<!-- BasicSetupComponent&#45;&gt;BasicSetupModule -->
<g id="edge1" class="edge">
<title>BasicSetupComponent&#45;&gt;BasicSetupModule</title>
<path fill="none" stroke="#000000" d="M275.0544,-122.1061C275.0544,-122.1061 275.0544,-140.991 275.0544,-140.991"/>
<polygon fill="#000000" stroke="#000000" points="271.5544,-140.9909 275.0544,-150.991 278.5544,-140.991 271.5544,-140.9909"/>
</g>
<!-- BasicSetupComponent  -->
<g id="node4" class="node">
<title>BasicSetupComponent </title>
<polygon fill="#fb8072" stroke="#000000" points="321.8213,-252 174.1787,-252 174.1787,-216 321.8213,-216 321.8213,-252"/>
<text text-anchor="middle" x="248" y="-229.8" font-family="Times,serif" font-size="14.00" fill="#000000">BasicSetupComponent </text>
</g>
<!-- BasicSetupModule&#45;&gt;BasicSetupComponent  -->
<g id="edge3" class="edge">
<title>BasicSetupModule&#45;&gt;BasicSetupComponent </title>
<path fill="none" stroke="#000000" stroke-dasharray="5,2" d="M248,-187.1061C248,-187.1061 248,-205.991 248,-205.991"/>
<polygon fill="#000000" stroke="#000000" points="244.5001,-205.9909 248,-215.991 251.5001,-205.991 244.5001,-205.9909"/>
</g>
<!-- ReadMeModule -->
<g id="node3" class="node">
<title>ReadMeModule</title>
<polygon fill="#8dd3c7" stroke="#000000" points="217.4748,-122 214.4748,-126 193.4748,-126 190.4748,-122 110.5252,-122 110.5252,-86 217.4748,-86 217.4748,-122"/>
<text text-anchor="middle" x="164" y="-99.8" font-family="Times,serif" font-size="14.00" fill="#000000">ReadMeModule</text>
</g>
<!-- ReadMeModule&#45;&gt;BasicSetupModule -->
<g id="edge2" class="edge">
<title>ReadMeModule&#45;&gt;BasicSetupModule</title>
<path fill="none" stroke="#000000" d="M202.1091,-122.1061C202.1091,-122.1061 202.1091,-140.991 202.1091,-140.991"/>
<polygon fill="#000000" stroke="#000000" points="198.6091,-140.9909 202.1091,-150.991 205.6091,-140.991 198.6091,-140.9909"/>
</g>
</g>
</svg>
